# AST/ASF file generated using VICON BodyLanguage
# -----------------------------------------------
:version 1.10
:name VICON
:units
  mass 1.0
  length 0.45
  angle deg
:documentation
   .ast/.asf automatically generated from VICON data using
   VICON BodyBuilder and BodyLanguage model FoxedUp or BRILLIANT.MOD
:root
   order TX TY TZ RX RY RZ
   axis XYZ
   position 0 0 0  
   orientation 0 0 0 
:bonedata
  begin
     id 1 
     name lhipjoint
     direction 0.560651 -0.75055 0.34978 
     length 2.44936 
     axis 0 0 0  XYZ
  end
  begin
     id 2 
     name lfemur
     direction 0.34202 -0.939693 0  
     length 7.42139  
     axis 0 0 20  XYZ
    dof rx ry rz
    limits (-160.0 20.0)
           (-70.0 70.0)
           (-60.0 70.0)
  end
  begin
     id 3 
     name ltibia
     direction 0.34202 -0.939693 0   
     length 7.75674   
     axis 0 0 20   XYZ
    dof rx
    limits (-10.0 170.0)
  end
  begin
     id 4 
     name lfoot
     direction 0.0925879 -0.254383 0.962661   
     length 2.38688   
     axis -90 7.62852e-016 20   XYZ
    dof rx rz
    limits (-45.0 90.0)
           (-70.0 20.0)
  end
  begin
     id 5 
     name ltoes
     direction 1.53567e-011 -4.21973e-011 1   
     length 1.19228   
     axis -90 7.62852e-016 20   XYZ
    dof rx
    limits (-90.0 20.0)
  end
  begin
     id 6 
     name rhipjoint
     direction -0.540087 -0.762838 0.355506   
     length 2.4099  
     axis 0 0 0  XYZ 
  end
  begin
     id 7 
     name rfemur
     direction -0.34202 -0.939693 0   
     length 7.70794   
     axis 0 0 -20   XYZ
    dof rx ry rz
    limits (-160.0 20.0)
           (-70.0 70.0)
           (-70.0 60.0)
  end
  begin
     id 8 
     name rtibia
     direction -0.34202 -0.939693 0   
     length 7.66106   
     axis 0 0 -20   XYZ
    dof rx
    limits (-10.0 170.0)
 end
 begin
     id 9 
     name rfoot
     direction -0.0830975 -0.228308 0.970036   
     length 2.4989  
     axis -90 -7.62852e-016 -20   XYZ
    dof rx rz
    limits (-45.0 90.0)
           (-20.0 70.0)
  end
  begin
     id 10 
     name rtoes
     direction -1.53517e-011 -4.21842e-011 1   
     length 1.2498   
     axis -90 -7.62852e-016 -20   XYZ
    dof rx
    limits (-90.0 20.0)
  end
  begin
     id 11 
     name lowerback
     direction 0.0266356 0.99402 -0.105896   
     length 2.1545   
     axis 0 0 0   XYZ
    dof rx ry rz
    limits (-20.0 45.0)
           (-30.0 30.0)
           (-30.0 30.0)
  end
  begin
     id 12 
     name upperback
     direction 0.0130547 0.999192 0.0380027   
     length 2.1434   
     axis 0 0 0   XYZ
    dof rx ry rz
    limits (-20.0 45.0)
           (-30.0 30.0)
           (-30.0 30.0)
  end
  begin
     id 13 
     name thorax
     direction 0.000590299 0.996288 0.0860764   
     length 2.19049   
     axis 0 0 0   XYZ
    dof rx ry rz
    limits (-20.0 45.0)
           (-30.0 30.0)
           (-30.0 30.0)
  end
  begin
     id 14 
     name lowerneck
     direction -0.0432125 0.978219 0.203028   
     length 1.62441   
     axis 0 0 0   XYZ
    dof rx ry rz
    limits (-20.0 45.0)
           (-30.0 30.0)
           (-30.0 30.0)
  end
  begin
     id 15 
     name upperneck
     direction -0.0192309 0.991699 -0.127138   
     length 1.66666   
     axis 0 0 0   XYZ
    dof rx ry rz
    limits (-20.0 45.0)
           (-30.0 30.0)
           (-30.0 30.0)
  end
  begin
     id 16
     name head
     direction -0.00434499 0.997882 -0.0649107  
     length 1.67142  
     axis 0 0 0   XYZ
    dof rx ry rz
    limits (-20.0 45.0)
           (-30.0 30.0)
           (-30.0 30.0)
  end
  begin
     id 17 
     name lclavicle
     direction 0.970351 0.240904 -0.0196058  
     length 4.04862  
     axis 0 0 0   XYZ
    dof ry rz
    limits (-20.0 10.0)
           (0.0 20.0)
  end
  begin
     id 18 
     name lhumerus
     direction 1 -4.4896e-011 -1.40911e-018   
     length 5.58345   
     axis 180 -30 -90   XYZ
    dof rx ry rz
    limits (-60.0 90.0)
           (-90.0 90.0)
           (-90.0 90.0)
  end
  begin
     id 19
     name lradius
     direction 1 -4.48968e-011 5.88912e-028   
     length 3.71087   
     axis 180 -30 -90   XYZ
    dof rx
    limits (-10.0 170.0)
  end
  begin
     id 20
     name lwrist
     direction 1 -4.48955e-011 -8.83775e-028   
     length 1.85544   
     axis 5.52448e-016 90 90   XYZ
    dof ry
    limits (-180.0 0.0)
 end
  begin
     id 21 
     name lhand
     direction 1 -4.49035e-011 -1.76755e-027   
     length 0.562322   
     axis 1.12785e-015 90 90   XYZ
    dof rx rz
    limits (-90.0 90.0)
           (-45.0 45.0)
  end
  begin
     id 22 
     name lfingers
     direction 1 -4.48824e-011 -3.5351e-027   
     length 0.453359   
     axis 2.2557e-015 90 90   XYZ
    dof rx
    limits (0.0 90.0)
  end
  begin
     id 23
     name lthumb
     direction 0.707107 -6.34888e-011 0.707107   
     length 0.650935   
     axis -90 45 2.85299e-015   XYZ
    dof rx rz
    limits (-45.0 45.0)
           (-45.0 45.0)
  end
  begin
     id 24 
     name rclavicle
     direction -0.96165 0.268562 -0.0557131   
     length 4.05446  
     axis 0 0 0   XYZ 
    dof ry rz
    limits (-10.0 20.0)
           (-20.0 0.0)
  end
  begin
     id 25 
     name rhumerus
     direction -1 -4.48957e-011 -3.36329e-027  
     length 5.20357   
     axis 180 30 90   XYZ
    dof rx ry rz
    limits (-90.0 60.0)
           (-90.0 90.0)
           (-90.0 90.0)
  end
  begin
     id 26 
     name rradius
     direction -1 -4.48974e-011 4.51441e-027   
     length 3.64937   
     axis 180 30 90   XYZ
    dof rx
    limits (-10.0 170.0)
  end
  begin
     id 27 
     name rwrist
     direction -1 -4.4896e-011 -8.83775e-028   
     length 1.82468   
     axis 5.52448e-016 -90 -90   XYZ
    dof ry
    limits (-180.0 0.0)
  end
  begin
     id 28
     name rhand
     direction -1 -4.48996e-011 -1.76755e-027   
     length 0.617996   
     axis 1.12785e-015 -90 -90   XYZ
    dof rx rz
    limits (-90.0 90.0)
           (-45.0 45.0)
  end
  begin
     id 29
     name rfingers
     direction -1 -4.48957e-011 -3.5351e-027   
     length 0.498244   
     axis 2.2557e-015 -90 -90   XYZ
    dof rx
    limits (0.0 90.0)
  end
  begin
     id 30
     name rthumb
     direction -0.707107 -6.34931e-011 0.707107   
     length 0.715382   
     axis -90 -45 -2.85299e-015   XYZ
    dof rx rz
    limits (-45.0 45.0)
           (-45.0 45.0)
  end
:hierarchy
  begin
    root lhipjoint rhipjoint lowerback
    lhipjoint lfemur
    lfemur ltibia
    ltibia lfoot
    lfoot ltoes
    rhipjoint rfemur
    rfemur rtibia
    rtibia rfoot
    rfoot rtoes
    lowerback upperback
    upperback thorax
    thorax lowerneck lclavicle rclavicle
    lowerneck upperneck
    upperneck head
    lclavicle lhumerus
    lhumerus lradius
    lradius lwrist
    lwrist lhand lthumb
    lhand lfingers
    rclavicle rhumerus
    rhumerus rradius
    rradius rwrist
    rwrist rhand rthumb
    rhand rfingers
  end

#!OML:ASF H:\ManfredETheater\Project 1\Capture day 2\Session 1\Male1.ASF
:FULLY-SPECIFIED
:DEGREES
412
root -19.6738 15.9927 -38.6521 206.467 -18.6956 182.664
lowerback 16.2996 1.48014 6.70504
upperback -0.311868 3.27511 2.51905
thorax -9.28554 1.22149 -1.82703
lowerneck -28.2347 0.317108 -2.28269
upperneck 0.391232 0.345162 -3.31397
head 4.35928 -0.573752 -0.722343
rclavicle 3.18055e-015 -6.52014e-014
rhumerus -31.0957 13.5389 -87.6925
rradius 105.441
rwrist -5.93338
rhand -32.5876 6.38685
rfingers 7.12502
rthumb -5.81605 -383.513
lclavicle 3.18055e-015 -6.52014e-014
lhumerus -70.8002 -16.174 93.8421
lradius 97.1247
lwrist 12.486
lhand -17.6063 -12.1291
lfingers 7.12502
lthumb 8.65023 17.6737
rfemur -16.8206 -3.95684 30.4685
rtibia 47.5643
rfoot -30.4632 -7.31366
rtoes -58.8686
lfemur -60.937 11.2339 -16.0941
ltibia 100.897
lfoot -15.0208 -4.33593
ltoes -1.71817
413
root -19.7843 16.0113 -39.031 206.384 -19.072 182.677
lowerback 15.9441 1.58309 6.87641
upperback -0.415245 3.4201 2.40129
thorax -9.16989 1.28804 -2.0721
lowerneck -28.3373 0.0406474 -2.32956
upperneck 0.797629 0.0531887 -3.23539
head 4.50185 -0.699971 -0.723779
rclavicle -6.04305e-014 -2.54444e-014
rhumerus -30.9615 14.8501 -87.4581
rradius 109.101
rwrist -5.4327
rhand -32.1309 6.94122
rfingers 7.12502
rthumb -5.37509 -382.971
lclavicle -6.04305e-014 -2.54444e-014
lhumerus -73.6818 -16.4109 93.9751
lradius 99.396
lwrist 15.2462
lhand -17.1388 -11.5362
lfingers 7.12502
lthumb 9.10142 18.2474
rfemur -14.2468 -3.72294 30.4291
rtibia 44.9674
rfoot -28.5991 -6.71056
rtoes -59.3269
lfemur -63.8559 10.9629 -16.7585
ltibia 100.233
lfoot -15.2128 -5.4048
ltoes -2.39723
414
root -19.8979 16.0363 -39.4191 206.358 -19.6078 182.639
lowerback 15.5185 1.64933 7.03748
upperback -0.535865 3.51086 2.32174
thorax -9.03942 1.33045 -2.25362
lowerneck -28.4717 -0.24294 -2.40222
upperneck 1.25164 -0.235089 -3.16526
head 4.66481 -0.825629 -0.724857
rclavicle -2.8625e-014 -2.46493e-014
rhumerus -30.913 16.0784 -87.0793
rradius 112.525
rwrist -4.75877
rhand -31.6977 7.56662
rfingers 7.12502
rthumb -4.95687 -382.355
lclavicle -2.8625e-014 -2.46493e-014
lhumerus -76.3721 -16.5138 94.1684
lradius 101.37
lwrist 17.6157
lhand -16.6581 -10.9928
lfingers 7.12502
lthumb 9.56522 18.7701
rfemur -11.7756 -3.4758 30.4343
rtibia 42.3679
rfoot -26.2666 -6.04144
rtoes -59.6711
lfemur -66.6167 10.3842 -17.4415
ltibia 99.01
lfoot -15.3792 -6.45512
ltoes -3.22568
415
root -20.0147 16.0701 -39.8168 206.408 -20.2873 182.586
lowerback 14.9965 1.67702 7.21239
upperback -0.677144 3.54614 2.28047
thorax -8.88239 1.34712 -2.38445
lowerneck -28.6211 -0.522464 -2.49052
upperneck 1.72257 -0.513409 -3.08395
head 4.83611 -0.946044 -0.719844
rclavicle 5.00937e-014 -1.74931e-014
rhumerus -30.9332 17.2137 -86.606
rradius 115.649
rwrist -3.96534
rhand -31.3227 8.26176
rfingers 7.12502
rthumb -4.5947 -381.668
lclavicle 5.00937e-014 -1.74931e-014
lhumerus -78.8312 -16.4571 94.3991
lradius 102.993
lwrist 19.414
lhand -16.1985 -10.5711
lfingers 7.12502
lthumb 10.0087 19.1709
rfemur -9.46762 -3.22323 30.5137
rtibia 39.7925
rfoot -23.4051 -5.31505
rtoes -59.9002
lfemur -69.1672 9.57545 -18.0938
ltibia 97.232
lfoot -15.5255 -7.50485
ltoes -4.14313
416
root -20.135 16.1108 -40.2223 206.513 -21.0483 182.536
lowerback 14.4211 1.67786 7.39212
upperback -0.829211 3.54103 2.26678
thorax -8.71115 1.34469 -2.47689
lowerneck -28.8097 -0.791419 -2.58589
upperneck 2.19807 -0.7795 -2.9784
head 5.01503 -1.05989 -0.705732
rclavicle 2.70347e-014 9.06458e-014
rhumerus -31.0034 18.2382 -86.0979
rradius 118.416
rwrist -3.14749
rhand -31.0329 8.9469
rfingers 7.12502
rthumb -4.31494 -380.989
lclavicle 2.70347e-014 9.06458e-014
lhumerus -80.9973 -16.233 94.6392
lradius 104.25
lwrist 20.5791
lhand -15.7517 -10.2384
lfingers 7.12502
lthumb 10.4397 19.4824
rfemur -7.35755 -2.93333 30.6525
rtibia 37.2975
rfoot -19.96 -4.56399
rtoes -59.9571
lfemur -71.4457 8.63685 -18.7115
ltibia 94.9375
lfoot -15.6381 -8.5469
ltoes -5.11278
417
root -20.2591 16.1579 -40.6347 206.658 -21.8609 182.502
lowerback 13.8102 1.65631 7.59695
upperback -0.986295 3.50433 2.26892
thorax -8.52704 1.32599 -2.55826
lowerneck -29.0209 -1.0623 -2.69774
upperneck 2.65569 -1.05173 -2.81815
head 5.19219 -1.17312 -0.672823
rclavicle -7.15625e-015 3.10104e-014
rhumerus -31.1154 19.1227 -85.6073
rradius 120.771
rwrist -2.4039
rhand -30.8181 9.55622
rfingers 7.12502
rthumb -4.10746 -380.384
lclavicle -7.15625e-015 3.10104e-014
lhumerus -82.8301 -15.8649 94.878
lradius 105.135
lwrist 21.0904
lhand -15.4083 -10.0913
lfingers 7.12502
lthumb 10.771 19.6126
rfemur -5.47181 -2.62261 30.8359
rtibia 34.9192
rfoot -15.8929 -3.82015
rtoes -59.7989
lfemur -73.3978 7.64399 -19.2994
ltibia 92.1666
lfoot -15.6651 -9.54936
ltoes -5.9524
418
root -20.3863 16.2059 -41.0512 206.828 -22.6767 182.49
lowerback 13.1802 1.62489 7.81137
upperback -1.13853 3.44978 2.27919
thorax -8.32792 1.2984 -2.63209
lowerneck -29.2815 -1.3122 -2.80552
upperneck 3.10023 -1.30435 -2.63215
head 5.37299 -1.27591 -0.631032
rclavicle 9.85972e-014 8.74653e-015
rhumerus -31.2533 19.8529 -85.175
rradius 122.659
rwrist -1.83963
rhand -30.6641 10.0242
rfingers 7.12502
rthumb -3.95879 -379.919
lclavicle 9.85972e-014 8.74653e-015
lhumerus -84.2849 -15.3756 95.0998
lradius 105.674
lwrist 21.0175
lhand -15.1875 -10.1475
lfingers 7.12502
lthumb 10.984 19.5452
rfemur -3.85249 -2.2885 31.0451
rtibia 32.752
rfoot -11.2607 -3.15806
rtoes -59.4058
lfemur -75.0208 6.68232 -19.8845
ltibia 89.0094
lfoot -15.5455 -10.4834
ltoes -6.60577
419
root -20.516 16.2579 -41.4727 206.978 -23.457 182.513
lowerback 12.5893 1.59142 8.03089
upperback -1.28426 3.39232 2.29006
thorax -8.14373 1.26789 -2.70957
lowerneck -29.5386 -1.55643 -2.91122
upperneck 3.5125 -1.55982 -2.40195
head 5.54415 -1.37581 -0.575683
rclavicle 4.92986e-014 5.32743e-014
rhumerus -31.44 20.4163 -84.8484
rradius 124.035
rwrist -1.54098
rhand -30.5407 10.3146
rfingers 7.12502
rthumb -3.83963 -379.631
lclavicle 4.92986e-014 5.32743e-014
lhumerus -85.3592 -14.7983 95.2952
lradius 105.917
lwrist 20.4493
lhand -15.0897 -10.346
lfingers 7.12502
lthumb 11.0782 19.3416
rfemur -2.49049 -1.90915 31.27
rtibia 30.8891
rfoot -6.23736 -2.61173
rtoes -58.6959
lfemur -76.2265 5.8344 -20.4883
ltibia 85.5286
lfoot -15.26 -11.316
ltoes -7.0627
420
root -20.6471 16.3093 -41.8964 207.117 -24.1771 182.572
lowerback 12.0234 1.56817 8.24801
upperback -1.41684 3.34543 2.29866
thorax -7.95825 1.24225 -2.79132
lowerneck -29.7961 -1.79563 -3.02042
upperneck 3.88979 -1.81654 -2.1407
head 5.70539 -1.47346 -0.509978
rclavicle -3.18055e-015 -1.66979e-014
rhumerus -31.6621 20.802 -84.6401
rradius 124.862
rwrist -1.5438
rhand -30.4316 10.3937
rfingers 7.12502
rthumb -3.73421 -379.553
lclavicle -3.18055e-015 -1.66979e-014
lhumerus -86.0333 -14.1784 95.4632
lradius 105.922
lwrist 19.502
lhand -15.1246 -10.6654
lfingers 7.12502
lthumb 11.0446 19.024
rfemur -1.43916 -1.4858 31.505
rtibia 29.4655
rfoot -1.20241 -2.10105
rtoes -57.7004
lfemur -77.0641 5.14536 -21.1378
ltibia 81.8556
lfoot -14.7934 -12.0132
ltoes -7.23854
421
root -20.7776 16.3582 -42.3215 207.212 -24.8076 182.684
lowerback 11.5145 1.56636 8.447
upperback -1.52886 3.32521 2.30866
thorax -7.781 1.22981 -2.86833
lowerneck -30.0331 -2.03396 -3.13973
upperneck 4.22585 -2.07768 -1.85237
head 5.852 -1.57044 -0.434164
rclavicle 5.56597e-015 -3.49861e-014
rhumerus -31.9301 21.002 -84.5581
rradius 125.129
rwrist -1.81862
rhand -30.2934 10.2405
rfingers 7.12502
rthumb -3.6008 -379.709
lclavicle 5.56597e-015 -3.49861e-014
lhumerus -86.3227 -13.5451 95.6169
lradius 105.745
lwrist 18.305
lhand -15.2771 -11.0353
lfingers 7.12502
lthumb 10.8974 18.662
rfemur -0.572205 -0.979292 31.7644
rtibia 28.3435
rfoot 3.46298 -1.56759
rtoes -56.5133
lfemur -77.5114 4.66794 -21.8355
ltibia 77.9739
lfoot -14.0317 -12.5546
ltoes -7.15023
422
root -20.9068 16.4045 -42.7474 207.25 -25.3485 182.827
lowerback 11.0813 1.59949 8.61863
upperback -1.56321 3.34648 2.32885
thorax -7.55983 1.24175 -2.92784
lowerneck -30.4786 -2.31261 -3.35454
upperneck 4.60267 -2.36255 -1.52333
head 6.04284 -1.68141 -0.337157
rclavicle -4.92986e-014 -6.67916e-014
rhumerus -32.1209 20.9798 -84.4931
rradius 124.828
rwrist -2.28907
rhand -30.0983 9.84937
rfingers 7.12502
rthumb -3.41243 -380.103
lclavicle -4.92986e-014 -6.67916e-014
lhumerus -86.1296 -12.9623 95.7948
lradius 105.431
lwrist 16.9819
lhand -15.5491 -11.3995
lfingers 7.12502
lthumb 10.6351 18.3113
rfemur -0.025976 -0.436378 32.0353
rtibia 27.9277
rfoot 7.1764 -0.989387
rtoes -55.2979
lfemur -77.6061 4.41932 -22.6317
ltibia 74.1417
lfoot -13.1252 -12.9032
ltoes -6.80337
423
root -21.0446 16.4295 -43.1676 207.258 -26.1203 182.953
lowerback 10.758 1.52497 8.99491
upperback -1.84363 3.28163 2.28595
thorax -7.66589 1.18188 -3.16266
lowerneck -30.2715 -2.58985 -3.37682
upperneck 4.85266 -2.72484 -1.15213
head 6.1058 -1.80397 -0.254983
rclavicle 7.23576e-014 -7.95139e-016
rhumerus -32.6943 21.2496 -84.6617
rradius 125.224
rwrist -3.36184
rhand -29.9331 9.75857
rfingers 7.12502
rthumb -3.25285 -380.196
lclavicle 7.23576e-014 -7.95139e-016
lhumerus -86.7752 -12.295 95.8857
lradius 105.146
lwrist 15.3779
lhand -15.8591 -12.0107
lfingers 7.12502
lthumb 10.3361 17.7153
rfemur 0.0742429 -0.0067177 32.318
rtibia 28.235
rfoot 12.6985 0.130921
rtoes -52.6864
lfemur -77.8053 3.91927 -23.5895
ltibia 70.0309
lfoot -12.6718 -13.845
ltoes -7.32413
424
root -21.1621 16.4783 -43.5939 207.44 -26.2974 183.13
lowerback 10.0982 1.61698 8.81856
upperback -1.84832 3.30662 2.2952
thorax -7.29706 1.22068 -3.0318
lowerneck -30.2643 -2.68599 -3.37942
upperneck 4.89347 -2.8706 -0.90953
head 6.12286 -1.84683 -0.192302
rclavicle -8.0309e-014 -6.52014e-014
rhumerus -32.9224 20.9741 -84.949
rradius 123.738
rwrist -4.10608
rhand -29.5241 8.82939
rfingers 7.12502
rthumb -2.85782 -381.131
lclavicle -8.0309e-014 -6.52014e-014
lhumerus -85.8798 -11.6288 95.955
lradius 104.664
lwrist 14.0273
lhand -16.429 -12.3188
lfingers 7.12502
lthumb 9.78624 17.4339
rfemur -0.168088 0.763351 32.5576
rtibia 29.3236
rfoot 13.2888 1.33335
rtoes -51.0877
lfemur -77.6088 4.2664 -24.579
ltibia 66.7542
lfoot -11.7129 -13.889
ltoes -6.037
425
root -21.2832 16.5042 -44.0166 207.281 -26.4911 183.343
lowerback 9.8853 1.74312 8.84075
upperback -1.74092 3.44263 2.32247
thorax -7.04319 1.29958 -3.02384
lowerneck -30.6881 -2.96785 -3.72381
upperneck 5.16915 -3.12907 -0.572437
head 6.28363 -1.94789 -0.0694444
rclavicle 3.81667e-014 -8.26944e-014
rhumerus -33.2454 20.3078 -85.1091
rradius 121.869
rwrist -4.43337
rhand -29.0052 7.73385
rfingers 7.12502
rthumb -2.35678 -382.233
lclavicle 3.81667e-014 -8.26944e-014
lhumerus -84.6133 -11.1464 96.2409
lradius 104.184
lwrist 12.7232
lhand -16.7063 -12.3623
lfingers 7.12502
lthumb 9.51873 17.4027
rfemur -0.332317 1.33278 32.8526
rtibia 31.1329
rfoot 11.5753 1.90672
rtoes -52.0416
lfemur -77.0462 4.62936 -25.5796
ltibia 63.8435
lfoot -10.4683 -13.2132
ltoes -3.72089
